<?xml version="1.0" encoding="utf-8"?>
<!-- Generator: Adobe Illustrator 26.1.0, SVG Export Plug-In . SVG Version: 6.00 Build 0)  -->
<svg version="1.1" id="Layer_1" xmlns="http://www.w3.org/2000/svg" xmlns:xlink="http://www.w3.org/1999/xlink" x="0px" y="0px"
	 viewBox="0 0 205.2 167.5" style="enable-background:new 0 0 205.2 167.5;" xml:space="preserve">
<style type="text/css">
	.st0{display:none;}
	.st1{display:inline;fill:#262629;}
	.st2{opacity:0.29;}
	.st3{fill:#1D798B;}
	.st4{fill:none;stroke:#1D798B;stroke-width:0.25;}
	.st5{fill:#A1C6CC;}
	.st6{opacity:0.85;fill:#181B1C;enable-background:new    ;}
	.st7{font-family:'Candara';}
	.st8{font-size:13.862px;}
	.st9{opacity:0.85;fill:none;stroke:#181B1C;stroke-width:0.25;stroke-miterlimit:10;enable-background:new    ;}
</style>
<g id="Layer_3" class="st0">
	<rect x="7.4" y="-11.3" class="st1" width="190.3" height="190.3"/>
</g>
<g class="st2">
	<path class="st3" d="M63.5,13.3c6.9-1.9,14.2-2.9,21-3.5c30.6-2.5,63.2,6,87.4,24.5c0.2,0.2,0.5,0.4,0.7,0.5
		c13.4,10.4,20.5,24.7,16.9,41.4c-5.9,27.6-26.6,49.9-53.3,60.4c-3,1.2-6,2.1-9.2,2.9c-20.6,5.1-42.2-3.5-57.5-17
		c-13.1-11.4-24.1-25.8-31.6-41.2c-5.4-11.2-10.6-24.4-8.3-36.9c1.5-8,6.2-15.3,12.6-20.6C48.2,18.7,55.6,15.4,63.5,13.3z"/>
	<path class="st4" d="M63.5,13.3c6.9-1.9,14.2-2.9,21-3.5c30.6-2.5,63.2,6,87.4,24.5c0.2,0.2,0.5,0.4,0.7,0.5
		c13.4,10.4,20.5,24.7,16.9,41.4c-5.9,27.6-26.6,49.9-53.3,60.4c-3,1.2-6,2.1-9.2,2.9c-20.6,5.1-42.2-3.5-57.5-17
		c-13.1-11.4-24.1-25.8-31.6-41.2c-5.4-11.2-10.6-24.4-8.3-36.9c1.5-8,6.2-15.3,12.6-20.6C48.2,18.7,55.6,15.4,63.5,13.3z"/>
</g>
<g class="st2">
	<path class="st3" d="M83,27.3c7-0.5,14.2,0,20.8,0.8c29.8,3.5,59.5,17.7,79.3,39.8c0.2,0.2,0.4,0.4,0.6,0.6
		c10.9,12.4,15,27.2,8.4,42.2c-10.9,24.9-34.9,41.9-62.5,46.7c-3.1,0.5-6.2,0.9-9.3,1c-20.7,0.8-39.9-11.4-52.1-27
		c-10.4-13.3-18.3-28.9-22.6-44.9c-3-11.5-5.6-25-1-36.3c2.9-7.3,8.8-13.2,15.9-17C67.3,29.5,75.1,27.9,83,27.3z"/>
	<path class="st4" d="M83,27.3c7-0.5,14.2,0,20.8,0.8c29.8,3.5,59.5,17.7,79.3,39.8c0.2,0.2,0.4,0.4,0.6,0.6
		c10.9,12.4,15,27.2,8.4,42.2c-10.9,24.9-34.9,41.9-62.5,46.7c-3.1,0.5-6.2,0.9-9.3,1c-20.7,0.8-39.9-11.4-52.1-27
		c-10.4-13.3-18.3-28.9-22.6-44.9c-3-11.5-5.6-25-1-36.3c2.9-7.3,8.8-13.2,15.9-17C67.3,29.5,75.1,27.9,83,27.3z"/>
</g>
<g class="st2">
	<path class="st3" d="M25.1,55.5c5-5.2,10.8-9.8,16.4-13.8c25.2-17.9,57.8-27.4,88.2-23.8c0.3,0,0.6,0.1,0.9,0.1
		c16.9,2.1,30.4,10.8,35.9,27.1c9.1,26.9,2.7,56.9-15.1,79.7c-2,2.5-4.1,5-6.4,7.2c-15.2,15-38.4,18.7-58.5,15
		c-17.2-3.2-34.2-9.9-48.6-19.4c-10.3-6.9-21.7-15.6-26.1-27.7C9,92.2,9.3,83.5,12.1,75.6C14.7,68.1,19.4,61.4,25.1,55.5z"/>
	<path class="st4" d="M25.1,55.5c5-5.2,10.8-9.8,16.4-13.8c25.2-17.9,57.8-27.4,88.2-23.8c0.3,0,0.6,0.1,0.9,0.1
		c16.9,2.1,30.4,10.8,35.9,27.1c9.1,26.9,2.7,56.9-15.1,79.7c-2,2.5-4.1,5-6.4,7.2c-15.2,15-38.4,18.7-58.5,15
		c-17.2-3.2-34.2-9.9-48.6-19.4c-10.3-6.9-21.7-15.6-26.1-27.7C9,92.2,9.3,83.5,12.1,75.6C14.7,68.1,19.4,61.4,25.1,55.5z"/>
</g>
<g>
	<path class="st5" d="M89.6,56.2L89.6,56.2C89.7,56.3,89.7,56.3,89.6,56.2c2.7,0,4.8,0.9,6.2,2.7c0.4,0.6,0.6,1.8,0.8,3.4
		c0.1,0,0.1,0.1,0.1,0.2c-0.1,0.9-0.3,1.4-0.6,1.4l0,0c-1.6-1.4-3.3-2.3-5.3-2.6c-1,0.1-1.9,0.1-2.6,0.1c-3.1,0.7-6.2,2.3-9.2,4.9
		c-1.1,1-1.9,1.7-2.3,2.4v0.1h0.2l0.8-0.1v0.1c0.4-0.1,1.2-0.2,2.4-0.2h0.7c0.1,0,0.1,0,0.1,0.1c0.3-0.1,0.6-0.2,0.9-0.2h1l0.4,0.2
		l0.1-0.2h-0.4c0-0.1,0.1-0.2,0.2-0.2s0.2,0,0.3,0.1c1.6-0.2,2.7-0.3,3.4-0.5c0.1,0.1,0.3,0.1,0.4,0.1c0.3-0.1,0.4-0.2,0.6-0.2
		l1,0.1l0.2-0.1c0.3,0.1,0.5,0.2,0.5,0.3c-0.3,0.2-1.1,0.5-2.4,0.7l-0.2-0.1c-0.8,0.1-1.3,0.2-1.3,0.4h0.1c0.3,0,0.7,0,1.2-0.1
		c0.1,0.1,0.3,0.1,0.5,0.1c0-0.1,0-0.1,0.1-0.1l0.1,0.2l-0.3,0.2c-0.1,0-0.1,0-0.1-0.1l-1.7,0.2v0.1h0.7v0.2h-0.9
		c-0.1,0-0.2,0.1-0.2,0.3c0,0.4,0.3,0.7,0.9,0.8c0,0.1,0.1,0.2,0.2,0.2v-0.2c0.1,0,0.5,0.1,0.9,0.2v-0.2h0.4l0.6-0.1v0.4h-0.8
		c-0.1,0-0.2,0.1-0.2,0.2v0.2l0.2-0.1h1v0.1l-0.1,0.2l0.2,0.1h0.1c0.1,0,0.2-0.1,0.2-0.4h0.4v0.2h0.2l0.8-0.1v0.2l-0.8,0.1h-0.2
		c0,0.4-0.3,0.6-0.8,0.6c-0.2,0.1-0.2,0-0.2-0.3c-0.1,0-0.2,0.1-0.2,0.2h0.2c0,0.1-0.1,0.2-0.2,0.2h-0.8V73l0.5-0.2
		c0.1,0.1,0.3,0.1,0.5,0.1v0.2c-4.4,0.6-7.5,0.9-9.2,0.9l-0.4,0.1V74l-0.4,0.2h-0.5c-0.3,0-0.6,0-1,0.1c-0.1,0-0.1,0-0.1-0.1
		l-1.1,0.1h-2.6c-0.5,0-1.4,1.1-2.7,3.3c-0.5,0.6-1.3,1.8-2.4,3.5l-0.2,0.1l0.1,0.2C66,83.6,65,84.9,64.5,85v0.1l0.1,0.2
		c-0.2,0-0.3,0.3-0.4,0.8c-0.4,0-0.7,0.5-1.1,1.5c0,0.1-0.2,0.2-0.7,0.3l-0.5,0.9l-0.2-0.1h-0.1c0,0.3-0.1,0.4-0.2,0.4l0.1,0.2
		c-0.3,0.3-0.6,0.3-0.9,0.3v0.2h0.1l0.2-0.1v0.1c-1,1.4-2.1,2.3-3.1,2.8l0.1,0.2l-1.4,0.9l-0.1,0.7h-0.2L56,94.3
		c-0.1,0.1-0.1,0.3-0.1,0.3h-0.5h-0.1v0.2h0.2v0.4h-0.1l-0.3-0.1c0,0.4-0.2,0.5-0.5,0.5v0.1l0.2,0.3c-1,0.7-1.8,1.2-2.6,1.5v0.4
		L52,97.8l-0.2,0.1c-0.1-0.1-0.3-0.1-0.4-0.1c-0.7,0.7-1,1-1.1,1v0.1c0,0.2,0.1,0.2,0.4,0.2v0.2c-0.4,0-0.8,0.3-1.2,0.9
		c-0.3,0-0.6,0.2-0.9,0.7v-0.1l0.1-0.2l-0.2-0.1c0,0.1-0.4,0.3-1.1,0.4c-1,1-1.8,1.7-2.6,2.2v0.1h0.3v0.1c0,0.1-0.2,0.3-0.5,0.5
		h-0.1c-0.1,0-0.2-0.1-0.2-0.4c-0.4,0.3-0.6,0.5-0.7,0.5c0.1,0.1,0.1,0.3,0.1,0.3c-0.1,0.3-0.2,0.5-0.3,0.5H43
		c0,0.4-0.3,0.6-0.8,0.6c0-0.2,0.2-0.4,0.6-0.4v-0.2c-0.8,0.5-1.3,0.7-1.5,0.7v0.1c0.2,0,0.3,0.1,0.3,0.2v0.1c-0.4,0-0.8,0.1-1,0.4
		c0-0.1,0-0.1-0.1-0.1l0.1-0.2v-0.1l-0.2,0.1h-0.1c1.3-1.4,2-2,2.3-2l0.2,0.1c0.1,0,0.4-0.3,0.8-0.8c0.5,0,1.1-0.4,1.7-1.1
		c0,0.1,0.1,0.2,0.2,0.2l0.2-0.3h-0.2v-0.2h0.1l0.2,0.1c1.5-1.2,2.3-1.9,2.3-2v-0.1H48l-0.5,0.4h-0.4V100h-0.2
		c0,0.2-0.7,0.8-2.2,1.9c-0.2,0.1-0.4,0.2-0.4,0.3h-0.2v-0.7c1.2-0.5,2-1,2.5-1.7c-0.2-0.2-0.4-0.4-0.5-0.4v-0.2
		c0.5-0.3,0.7-0.5,0.7-0.6h-0.1c-0.8,0-1.2,0.3-1.2,0.9h-0.1c0-0.1,0-0.2-0.1-0.2c-0.4,0.2-0.6,0.4-0.8,0.4v0.1h0.4
		c0,0.1-0.1,0.2-0.2,0.2h-0.6c0,0.1-0.1,0.1-0.4,0.2l0.1,0.2c0,0.1-0.1,0.2-0.3,0.3h-0.2v-0.1c-0.2,0-0.3,0.2-0.4,0.6h-0.2
		c0-0.4,0.2-0.7,0.7-0.9v-0.1h-0.1c-0.3,0.1-0.6,0.3-0.9,0.7l0.4,0.5c-0.1,0-0.4,0.3-0.9,0.8c-0.1-0.1-0.3-0.1-0.3-0.1
		c-0.1,0.3-0.4,0.5-0.7,0.6c-0.1-0.1-0.1-0.3-0.1-0.6c-0.2,0.2-0.4,0.3-0.6,0.3l0.1,0.2c-0.2,0.5-0.5,0.8-0.9,0.8v-0.2
		c0.4-0.1,0.6-0.2,0.6-0.4h-0.2l-1.7,0.8c0-0.1,0-0.1-0.1-0.1v0.1l0.1,0.2h-0.5c-0.4,0.2-0.6,0.4-0.6,0.7h-0.1l-0.2-0.1
		c0,0.4-0.2,0.7-0.7,0.8c0,0.2-0.2,0.3-0.6,0.3c0-0.1,0-0.1-0.1-0.1v0.3h-0.1l-0.2-0.1c0,0.3-0.4,0.6-1.3,0.9c0,0.1,0,0.1-0.1,0.1
		c-0.1-0.1-0.3-0.1-0.3-0.1c0,0.1-0.2,0.2-0.7,0.3c0,0.2-0.4,0.4-1.1,0.6c0-0.1,0-0.1-0.1-0.1c0,0.1-0.5,0.4-1.4,0.8
		c-0.3,0.3-0.9,0.6-2,1V109c0.5-0.5,1.5-1.1,3.1-1.9c0.5-0.5,1.4-1.1,2.6-1.7c0.5-0.4,1.1-0.7,1.7-1c0-0.1,0.2-0.3,0.7-0.5
		c0.1,0.1,0.3,0.1,0.3,0.1c0-0.3,0.6-0.8,1.9-1.5c0-0.1,0-0.1,0.1-0.1c0,0.2,0.1,0.2,0.2,0.2h0.1v-0.1h-0.2v-0.2
		c0-0.1,0.3-0.2,0.9-0.4c0-0.3,0.1-0.5,0.3-0.5h0.2l-0.1,0.2h0.1l1.4-1.3c0.1,0,0.1,0,0.1,0.1c0.5,0,0.9-0.2,1.3-0.7h-0.1
		c0.2-0.4,1.2-1.1,3-2.4l0.2,0.1c0-0.2,1-1.1,2.9-2.6l0.6,0.1l0.4-0.5h-0.1l-0.5,0.3L49,94.5c1.3-0.9,2.7-2.1,4.4-3.8
		c0-0.1,0.2-0.2,0.7-0.2L54,90.3c1.3-1.4,2.3-2.4,2.9-2.8c0-0.2,1.2-1.5,3.6-4.1c2.2-2.8,4.4-5.9,6.7-9.4v-0.1c-1.8-0.2-4-1-6.4-2.4
		c-0.7-0.4-1.1-1.3-1.4-2.5v-2.2c0.3-1.1,0.6-1.6,0.8-1.6c0.1-0.1,0.3-0.1,0.4-0.1s1,0.6,2.5,1.7c2.5,1.2,5.1,1.8,7.7,1.8
		c1.3-2,3.7-4.6,7-7.8C82.1,57.7,86,56.2,89.6,56.2z M28.6,111.2H29c0,0.2-0.1,0.2-0.2,0.2h-0.3C28.4,111.3,28.5,111.2,28.6,111.2z
		 M32.7,108.9L32.7,108.9L32.7,108.9c-0.7,0.9-1.5,1.3-2.5,1.6c-0.1,0.3-0.4,0.5-0.7,0.5v-0.1C29.8,110.6,30.9,109.9,32.7,108.9z
		 M34.3,108.2c0,0.2-0.3,0.3-0.9,0.5v-0.1C33.4,108.4,33.8,108.2,34.3,108.2z M34.7,106.4v0.2c-0.6,0.2-0.9,0.3-0.9,0.3v-0.2
		C34.2,106.5,34.5,106.4,34.7,106.4z M43.7,101.3L43.7,101.3c-0.1,0.4-0.2,0.6-0.2,0.8l0.3-0.2l0.1,0.2l-0.4,0.2l0.1,0.2
		c0,0.2-0.4,0.4-1.3,0.8c0-0.1,0-0.1-0.1-0.1c-0.7,0.6-1.5,1.3-2.5,1.9c-0.1-0.1-0.3-0.1-0.4-0.1c0,0.1-0.2,0.3-0.6,0.4l0.4,0.2v0.1
		h-0.3l-0.2-0.1c-0.1,0.3-0.5,0.6-1,0.9l-0.1,0.2l-0.2-0.1l-0.2,0.1l0.1,0.2v0.1c-0.5,0-1.3,0.4-2.4,1.1h-0.4v-0.2
		c0.2,0,0.4-0.1,0.4-0.2v-0.1l-0.2-0.3v-0.1c0.1,0,0.4-0.2,0.8-0.6h0.1v0.2c0,0-0.2,0.2-0.6,0.6c0.1,0.1,0.1,0.3,0.1,0.3h0.1
		c0.3-0.4,0.5-0.7,0.5-0.9c0.6-0.5,1-0.8,1-1l0.2-0.1c0.1,0,0.2,0.1,0.2,0.2c-0.1,0-0.3,0.2-0.6,0.7c-0.5,0.1-0.8,0.2-0.8,0.4h0.1
		c0.1-0.1,0.3-0.1,0.4-0.1c0,0.1,0,0.1,0.1,0.1c0.8-0.6,1.1-0.9,1.1-1.1v-0.1l0.6,0.1c0.5-0.5,1.6-1.1,3.2-2c0-0.2-0.1-0.2-0.3-0.2
		v-0.3c0.1,0,0.2,0,0.3-0.1c0,0.3,0,0.4,0.1,0.4c0.2,0,0.5-0.2,1-0.5c0.1,0,0.3-0.2,0.5-0.5c0.4-0.2,0.6-0.4,0.8-0.4v-0.5h-0.1
		l-0.6,0.1C42.7,101.6,43.1,101.5,43.7,101.3z M34.9,106.1L34.9,106.1c0.3,0,0.3,0.1,0.3,0.2l-0.2,0.1L34.9,106.1
		C34.9,106.2,34.9,106.1,34.9,106.1z M35.4,108.9l0.1,0.2l-0.2,0.1h-0.1v-0.1C35.2,109,35.3,108.9,35.4,108.9z M35.9,108.3
		L35.9,108.3l0.6,0.1c0.1-0.1,0.3-0.1,0.3-0.1v0.4c-0.2,0-0.3,0-0.3,0.1l-0.2-0.1h-0.2c0,0.4-0.1,0.6-0.3,0.6v-0.5l0.2,0.1v-0.1
		C35.9,108.7,35.9,108.5,35.9,108.3z M36.1,105.4c0.1,0.1,0.3,0.1,0.4,0.1c0,0.2-0.2,0.3-0.6,0.4v-0.3
		C35.9,105.5,36,105.4,36.1,105.4z M36.8,107.8c0.1,0.1,0.3,0.1,0.4,0.1c0-0.1,0-0.1,0.1-0.1v0.1c0,0.1-0.1,0.2-0.2,0.2h-0.5
		C36.5,108,36.6,107.9,36.8,107.8z M37.3,104.4h0.3v0.1c0,0.1,0,0.1-0.1,0.1l0.1,0.2v0.1l-0.7-0.1v-0.1
		C36.9,104.6,37,104.5,37.3,104.4z M37.4,105.3L37.4,105.3c0,0.2-0.1,0.3-0.2,0.3v-0.1C37.2,105.4,37.3,105.3,37.4,105.3z
		 M38.6,106.9l0.1,0.2c0,0.1-0.2,0.2-0.5,0.4l-0.1-0.2L38.6,106.9z M39.2,104.4L39.2,104.4L39.2,104.4c0.1,0.3-0.1,0.4-0.5,0.4h-0.2
		v-0.1C38.7,104.7,38.9,104.6,39.2,104.4z M39.3,101.9v0.2c0.1-0.1,0.3-0.1,0.3-0.1v-0.1H39.3L39.3,101.9z M39.5,106.1L39.5,106.1
		c0.1,0.1,0,0.2-0.1,0.2h-0.1C39.3,106.2,39.4,106.1,39.5,106.1z M40.7,102.6l0.1,0.2c-0.1,0-0.3,0.1-0.5,0.2h-0.1v-0.3
		C40.3,102.7,40.4,102.6,40.7,102.6z M41.4,102.9L41.4,102.9c0,0.3-0.1,0.3-0.2,0.3h-0.1C41,103.1,41.1,103,41.4,102.9z M41.1,101.5
		c0,0.2,0.1,0.2,0.2,0.2h0.1C41.4,101.5,41.3,101.5,41.1,101.5L41.1,101.5z M43.2,103.9l-0.2,0.3l0.2,0.1h0.1c0-0.1,0-0.2,0.1-0.3
		L43.2,103.9z M43.6,99.8l-0.1,0.4c0.1,0,0.2-0.1,0.3-0.3v-0.1H43.6z M45.1,98.7c-0.2,0.4-0.5,0.6-0.8,0.6v0.2h0.1
		c0.6-0.5,0.9-0.7,1-0.7v-0.1H45.1L45.1,98.7z M44.9,97.9L44.9,97.9L44.9,97.9c0.2,0,0.4,0,0.5,0v-0.1h-0.1
		C45.1,97.9,45,97.9,44.9,97.9z M45,100.2L45,100.2c0.3,0,0.3,0.1,0.3,0.2l-0.2,0.1L45,100.2L45,100.2z M46.5,99.2L46.5,99.2
		c0,0.2,0.2,0.4,0.5,0.6v-0.2l-0.1-0.2c0.1,0,0.2-0.1,0.2-0.2v-0.1L46.5,99.2z M46.6,98.4L46.6,98.4l0.4,0.1
		c0.3-0.1,0.5-0.3,0.7-0.6h-0.1C47.2,98.2,46.9,98.4,46.6,98.4z M47.1,99.8L47.1,99.8l0.4,0.1v-0.3h-0.1
		C47.2,99.6,47.1,99.7,47.1,99.8z M47.5,98.6v0.3c0.1,0,0.2-0.1,0.2-0.2L47.5,98.6z M47.8,98.2L47.8,98.2c0.3,0,0.5-0.1,0.5-0.3
		h-0.2C47.9,98,47.8,98.1,47.8,98.2z M47.9,98.8h0.2c0.1,0,0.2-0.1,0.2-0.2h-0.1C48,98.6,47.9,98.7,47.9,98.8z M49.9,95.9L49.9,95.9
		l-0.3-0.1c-0.6,0.4-1,0.9-1.1,1.4c-0.1,0-0.2,0.1-0.2,0.2v0.2h0.2c0-0.3,0.3-0.6,1-0.9c0-0.2,0.1-0.3,0.2-0.3h0.1v0.1l-1,1v0.1
		c0.5,0,1.1-0.5,1.9-1.6v-0.1L50,96.2v-0.1l0.4-0.4h-0.1L49.9,95.9z M48.7,96L48.7,96c0.2,0,0.3-0.1,0.3-0.2h-0.1
		C48.8,95.8,48.7,95.8,48.7,96z M48.7,98.7L48.7,98.7l0.5,0.2c0.4,0,1.2-0.7,2.3-2h0.1v-0.1h-0.1c-0.8,0.2-1.3,0.5-1.3,0.9
		C50.3,97.8,49.8,98.1,48.7,98.7z M49.2,95.4v0.2h0.1c0.1,0,0.2-0.1,0.4-0.4h-0.1C49.4,95.4,49.3,95.4,49.2,95.4z M51,95.7L51,95.7
		c0.2,0,0.3-0.1,0.3-0.2h-0.1C51.1,95.5,51,95.6,51,95.7z M53,93.7v-0.4c0.2,0,0.4-0.1,0.6-0.4h-0.1c-0.2,0-0.4,0.2-0.8,0.7v0.1
		c0.2,0,0.4,0.1,0.4,0.2h0.2c1.1-1,1.7-1.5,1.7-1.6v-0.1h-0.1C53.7,93.1,53.2,93.6,53,93.7L53,93.7z M53.9,92.4c0,0,0,0.2-0.1,0.4
		c0.1,0,0.2-0.1,0.2-0.3v-0.1H53.9z M54.1,91.9L54.1,91.9c0,0.3,0.1,0.3,0.2,0.3v-0.4L54.1,91.9L54.1,91.9z M54.4,94.4L54.4,94.4
		L54.4,94.4c0.1,0,0.2-0.1,0.3-0.1V94C54.7,94,54.5,94.2,54.4,94.4z M55.3,91.7L55.3,91.7c0.3,0,0.3-0.1,0.3-0.2h-0.1
		C55.4,91.5,55.3,91.5,55.3,91.7z M77.2,73.7L77.2,73.7l1.1,0.1v-0.4C78.3,73.6,77.9,73.7,77.2,73.7z M79.2,70l-0.1,0.2l0.2,0.1h0.1
		v-0.1C79.4,70,79.3,70,79.2,70z M82.9,69.4h-0.3v0.4c-0.4,0-0.6,0.1-0.6,0.3L81.8,70h-0.5l0.1,0.2v0.1h-0.3l-0.7,0.1
		c-0.1-0.1-0.3-0.1-0.5-0.1l-0.1,0.2v0.1l0.2-0.1h0.4v0.2h-0.3v0.1h0.4l0.5-0.1c0.1,0.1,0.3,0.1,0.4,0.1v-0.1l-0.1-0.2
		c0.7,0,1.1-0.1,1.3-0.2l0.7,0.1c0.4-0.1,0.6-0.2,0.6-0.5c0.4,0.1,0.5,0.2,0.5,0.4v0.1c-0.3,0-0.7,0.1-1.2,0.3v0.1h0.3l0.2-0.1
		c0.1,0.1,0.3,0.1,0.5,0.1h0.1c0-0.2,0.2-0.4,0.7-0.4c0-0.2,0-0.4,0.1-0.4L85,69.8v-0.2h0.1v-0.1h-0.2c0,0.1,0,0.1-0.1,0.1v-0.1
		l-0.3,0.1h-0.6v-0.1l0.5-0.4h-0.7C83.5,69.2,83.2,69.3,82.9,69.4z M80.2,71.3h-0.4v0.2h0.3c0.4,0,0.6-0.1,0.7-0.3L80.2,71.3z
		 M80.8,71.5c0.1,0,0.2,0,0.4,0.1c0.6-0.1,0.9-0.2,0.9-0.4c-0.2,0-0.5,0-0.8-0.1C80.9,71.3,80.8,71.4,80.8,71.5z M81.1,73.4v0.2h0.3
		c0-0.1-0.1-0.2-0.2-0.2H81.1z M82.1,71.2c0,0.1,0.1,0.2,0.2,0.2h0.1C82.4,71.3,82.3,71.2,82.1,71.2L82.1,71.2z M83,71.1L83,71.1
		c0,0.2,0.1,0.3,0.2,0.3h0.1c-0.1-0.1-0.1-0.3-0.1-0.3H83z M83.4,69.4h0.2v0.2c-0.3,0.1-0.4,0.1-0.4,0.1v-0.1
		C83.2,69.5,83.2,69.4,83.4,69.4z M84.5,70.8c0,0.2-0.1,0.4-0.4,0.4v0.4h0.1c0-0.3,0.2-0.4,0.7-0.4h0.2l0.2,0.1v-0.2
		c-0.1,0-0.3-0.1-0.5-0.2L84.5,70.8L84.5,70.8z M84.3,73.1c0,0.1,0.1,0.2,0.2,0.2l0.1-0.2H84.3z M84.7,73L84.7,73l0.5,0.1V73H84.7z
		 M85.1,71.5L85.1,71.5l0.5,0.1v-0.1H85.1z M85.5,70.1L85.5,70.1c0.1,0.2,0,0.2-0.1,0.2h-0.1C85.3,70.2,85.4,70.1,85.5,70.1z
		 M87.2,69.9L87.2,69.9l0.1,0.2c-0.3,0-0.5,0.2-0.5,0.4h0.1l0.7-0.1h0.1v0.2h-0.1c-0.1,0-0.1,0-0.1-0.1c-0.4,0.2-0.9,0.3-1.5,0.3
		l-0.5-0.2v-0.2l1-0.5V70C86.8,69.9,87,69.9,87.2,69.9z M85.5,72.9v0.2h0.1c0.2,0,0.2-0.1,0.2-0.2H85.5z M85.9,71.3v0.2h0.4v-0.2
		H85.9z M87.1,72.5h0.3v-0.2h-0.1C87.2,72.3,87.1,72.3,87.1,72.5z M87.4,71.5l0.1,0.2c-0.1,0-0.1,0-0.1,0.1l0.2,0.1l0.6-0.1v-0.2
		C87.9,71.7,87.7,71.6,87.4,71.5z M88.5,68.8h0.4v0.1c-0.1,0-0.2,0.1-0.2,0.2C88.6,69.1,88.5,69,88.5,68.8L88.5,68.8L88.5,68.8z
		 M89.2,72.4h0.3v0.2h-0.1C89.3,72.6,89.2,72.5,89.2,72.4z M90.4,67.8L90.4,67.8c0.2,0,0.3,0.1,0.3,0.2v0.1h-0.4
		c-0.1,0-0.2-0.1-0.2-0.2L90.4,67.8z"/>
	<path class="st5" d="M94.6,74.2c0.7,0.2,1.2,0.6,1.6,1.3V76c0,0.7,0,1.4,0.1,2.1c0,0.1-0.3,1.4-0.8,3.9l5.8-3.4
		c4-1.9,6.2-2.9,6.9-2.9c0.3-0.3,1.1-0.4,2.6-0.6c0.7,0,1.3,0.5,1.9,1.5c0,1.8-0.4,3.8-1.3,6.1c-1.3,1.6-2,2.4-2.3,2.4l0,0l0.1,0.2
		v0.1c-1.1,1.2-1.8,1.8-2.2,1.8l0.1,0.2v0.2c-0.2,0-0.4,0.2-0.7,0.7c-0.2,0-1.2,1.1-3,3.4c-0.1,0-0.3,0.1-0.6,0.4h-0.1v-0.4h-0.1
		c0,0.3-0.2,0.5-0.5,0.7c-0.1,0-0.2-0.1-0.2-0.2v-0.1l0.1-0.6c-0.3,0-0.5-0.3-0.7-0.9c0.4-2,2.2-4.7,5.1-8c1.1-1,1.6-1.7,1.6-1.9
		l-0.9,0.4c-0.1-0.1-0.3-0.1-0.5-0.1h-0.1c0,0.2-0.2,0.4-0.6,0.5h-0.3l-1.8,0.8c0,0.2-0.6,0.4-1.7,0.8l-3.5,2.3
		c-0.6,0.2-1.6,0.8-2.9,1.7c-0.7,0.5-2.1,1.5-4.1,2.8c-1.8,1.8-2.9,3-3.3,3.6c-0.3,0.3-0.6,0.9-1,1.7h-0.1c-0.5,0-0.9-0.5-1-1.6h0.1
		c-0.1-0.8-0.2-1.1-0.3-1.1l0.1-0.7L86,91.1c0-1.5,2.2-4.9,6.5-10.1c0-0.1,0.2-0.5,0.6-1.1v-0.1H93c-2.2,0.6-3.7,1.1-4.6,1.7
		l-3.7,1.7h-0.3v0.1l0.1,0.2c-1.5,0.4-3.7,2.1-6.6,5c-0.7,0.6-2,2.2-4,4.7c-0.1,0-1.1,1.2-2.9,3.5h-0.9c-0.2,0-0.4-0.6-0.6-1.8
		c0.1-0.1,0.1-0.3,0.1-0.4l-0.4-0.8c0-0.1,0-0.1,0.1-0.1c-0.1-0.7-0.2-1.3-0.2-1.7c0.4-1.1,1.3-2.6,2.8-4.2l6.9-9.4
		c1.3-2.1,2-3.2,2.2-3.2c0.3-0.5,0.7-0.8,1.1-0.8h0.1c0.3,0,0.5,0.5,0.8,1.4v3h0.2c0.4-0.4,2.2-1.3,5.4-2.8c1.7-0.7,2.6-1,2.8-1
		c0,0.1,0,0.1,0.1,0.1c0-0.1,0.6-0.4,2-0.7l0.2,0.1C94,74.3,94.4,74.2,94.6,74.2z M104.6,81.5L104.6,81.5c0.2,0,0.3-0.1,0.3-0.2
		h-0.1C104.7,81.3,104.6,81.4,104.6,81.5z"/>
	<path class="st5" d="M136.5,74.2c0.7,0.2,1.2,0.6,1.6,1.3V76c0,0.7,0,1.4,0.1,2.1c0,0.1-0.3,1.4-0.8,3.9l5.8-3.4
		c4-1.9,6.2-2.9,6.9-2.9c0.3-0.3,1.1-0.4,2.6-0.6c0.7,0,1.3,0.5,1.9,1.5c0,1.8-0.4,3.8-1.3,6.1c-1.3,1.6-2,2.4-2.3,2.4h-0.1l0.1,0.2
		v0.1c-1.1,1.2-1.8,1.8-2.2,1.8l0.1,0.2v0.2c-0.2,0-0.4,0.2-0.7,0.7c-0.2,0-1.2,1.1-3,3.4c-0.1,0-0.3,0.1-0.6,0.4h-0.1v-0.4h-0.1
		c0,0.3-0.2,0.5-0.5,0.7c-0.1,0-0.2-0.1-0.2-0.2v-0.1l0.1-0.6c-0.3,0-0.5-0.3-0.7-0.9c0.4-2,2.2-4.7,5.1-8c1.1-1,1.6-1.7,1.6-1.9
		l-0.9,0.4c-0.1-0.1-0.3-0.1-0.5-0.1h-0.1c0,0.2-0.2,0.4-0.6,0.5h-0.3l-1.8,0.8c0,0.2-0.6,0.4-1.7,0.8l-3.5,2.3
		c-0.6,0.2-1.6,0.8-2.9,1.7c-0.7,0.5-2.1,1.5-4.1,2.8c-1.8,1.8-2.9,3-3.3,3.6c-0.3,0.3-0.6,0.9-1,1.7l0,0c-0.5,0-0.9-0.5-1-1.6h0.1
		c-0.1-0.8-0.2-1.1-0.3-1.1l0.1-0.7l-0.1-0.7c0-1.5,2.2-4.9,6.5-10.1c0-0.1,0.2-0.5,0.6-1.1v-0.1h-0.1c-2.2,0.6-3.7,1.1-4.6,1.7
		l-3.7,1.7h-0.3v0.1l0.1,0.2c-1.5,0.4-3.7,2.1-6.6,5c-0.7,0.6-2,2.2-4,4.7c-0.1,0-1.1,1.2-2.9,3.5H112c-0.2,0-0.4-0.6-0.6-1.8
		c0.1-0.1,0.1-0.3,0.1-0.4l-0.4-0.8c0-0.1,0-0.1,0.1-0.1c-0.1-0.7-0.2-1.3-0.2-1.7c0.4-1.1,1.3-2.6,2.8-4.2l6.9-9.4
		c1.3-2.1,2-3.2,2.2-3.2c0.3-0.5,0.7-0.8,1.1-0.8h0.1c0.3,0,0.5,0.5,0.8,1.4v3h0.2c0.4-0.4,2.2-1.3,5.4-2.8c1.7-0.7,2.6-1,2.8-1
		c0,0.1,0,0.1,0.1,0.1c0-0.1,0.6-0.4,2-0.7l0.2,0.1C135.9,74.3,136.2,74.2,136.5,74.2z M146.5,81.5h0.1c0.1,0,0.2-0.1,0.2-0.2h-0.1
		C146.6,81.3,146.5,81.4,146.5,81.5z"/>
</g>
<text transform="matrix(1 0 0 1 102.2108 68.794)" class="st6 st7 st8">freemymusic</text>
<text transform="matrix(1 0 0 1 102.2108 68.794)" class="st9 st7 st8">freemymusic</text>
</svg>
