<?xml version="1.0" encoding="utf-8"?>
<!-- Generator: Adobe Illustrator 26.1.0, SVG Export Plug-In . SVG Version: 6.00 Build 0)  -->
<svg version="1.1" id="Layer_1" xmlns="http://www.w3.org/2000/svg" xmlns:xlink="http://www.w3.org/1999/xlink" x="0px" y="0px"
	 viewBox="0 0 203.8 164.9" style="enable-background:new 0 0 203.8 164.9;" xml:space="preserve">
<style type="text/css">
	.st0{display:none;}
	.st1{display:inline;fill:#262629;}
	.st2{opacity:0.29;}
	.st3{fill:#1D798B;}
	.st4{fill:none;stroke:#1D798B;stroke-width:0.25;}
	.st5{fill:#A1C6CC;}
	.st6{fill:#181B1C;stroke:#181B1C;stroke-width:0.5;stroke-miterlimit:10;}
	.st7{font-family:'Candara';}
	.st8{font-size:14.7252px;}
	.st9{display:none;fill:#181B1C;}
</style>
<g id="Layer_3" class="st0">
	<rect x="-8.8" y="-7.5" class="st1" width="232.3" height="195.7"/>
</g>
<g class="st2">
	<path class="st3" d="M62.9,12.3c6.9-1.9,14.2-2.9,21-3.5c30.6-2.5,63.2,6,87.4,24.5c0.2,0.2,0.5,0.4,0.7,0.5
		c13.4,10.4,20.5,24.7,16.9,41.4c-5.9,27.6-26.6,49.9-53.3,60.4c-3,1.2-6,2.1-9.2,2.9c-20.6,5.1-42.2-3.5-57.5-17
		c-13.1-11.4-24.1-25.8-31.6-41.2c-5.4-11.2-10.6-24.4-8.3-36.9c1.5-8,6.2-15.3,12.6-20.6C47.6,17.7,55,14.4,62.9,12.3z"/>
	<path class="st4" d="M62.9,12.3c6.9-1.9,14.2-2.9,21-3.5c30.6-2.5,63.2,6,87.4,24.5c0.2,0.2,0.5,0.4,0.7,0.5
		c13.4,10.4,20.5,24.7,16.9,41.4c-5.9,27.6-26.6,49.9-53.3,60.4c-3,1.2-6,2.1-9.2,2.9c-20.6,5.1-42.2-3.5-57.5-17
		c-13.1-11.4-24.1-25.8-31.6-41.2c-5.4-11.2-10.6-24.4-8.3-36.9c1.5-8,6.2-15.3,12.6-20.6C47.6,17.7,55,14.4,62.9,12.3z"/>
</g>
<g class="st2">
	<path class="st3" d="M82.4,26.3c7-0.5,14.2,0,20.8,0.8c29.8,3.5,59.5,17.7,79.3,39.8c0.2,0.2,0.4,0.4,0.6,0.6
		c10.9,12.4,15,27.2,8.4,42.2c-10.9,24.9-34.9,41.9-62.5,46.7c-3.1,0.5-6.2,0.9-9.3,1c-20.7,0.8-39.9-11.4-52.1-27
		C57.2,117.1,49.3,101.5,45,85.5C42,74,39.4,60.5,44,49.2c2.9-7.3,8.8-13.2,15.9-17C66.7,28.5,74.5,26.9,82.4,26.3z"/>
	<path class="st4" d="M82.4,26.3c7-0.5,14.2,0,20.8,0.8c29.8,3.5,59.5,17.7,79.3,39.8c0.2,0.2,0.4,0.4,0.6,0.6
		c10.9,12.4,15,27.2,8.4,42.2c-10.9,24.9-34.9,41.9-62.5,46.7c-3.1,0.5-6.2,0.9-9.3,1c-20.7,0.8-39.9-11.4-52.1-27
		C57.2,117.1,49.3,101.5,45,85.5C42,74,39.4,60.5,44,49.2c2.9-7.3,8.8-13.2,15.9-17C66.7,28.5,74.5,26.9,82.4,26.3z"/>
</g>
<g class="st2">
	<path class="st3" d="M24.5,54.5c5-5.2,10.8-9.8,16.4-13.8c25.2-17.9,57.8-27.4,88.2-23.8c0.3,0,0.6,0.1,0.9,0.1
		c16.9,2.1,30.4,10.8,35.9,27.1c9.1,26.9,2.7,56.9-15.1,79.7c-2,2.5-4.1,5-6.4,7.2c-15.2,15-38.4,18.7-58.5,15
		c-17.2-3.2-34.2-9.9-48.6-19.4C27,119.7,15.6,111,11.2,98.9c-2.8-7.7-2.5-16.4,0.3-24.3C14.1,67.1,18.8,60.4,24.5,54.5z"/>
	<path class="st4" d="M24.5,54.5c5-5.2,10.8-9.8,16.4-13.8c25.2-17.9,57.8-27.4,88.2-23.8c0.3,0,0.6,0.1,0.9,0.1
		c16.9,2.1,30.4,10.8,35.9,27.1c9.1,26.9,2.7,56.9-15.1,79.7c-2,2.5-4.1,5-6.4,7.2c-15.2,15-38.4,18.7-58.5,15
		c-17.2-3.2-34.2-9.9-48.6-19.4C27,119.7,15.6,111,11.2,98.9c-2.8-7.7-2.5-16.4,0.3-24.3C14.1,67.1,18.8,60.4,24.5,54.5z"/>
</g>
<g>
	<path class="st5" d="M86.5,55.6v0.1c0.1,0,0.1,0,0.1-0.1c2.6,0,4.7,0.9,6.1,2.7c0.4,0.6,0.6,1.8,0.8,3.4c0.1,0,0.1,0.1,0.1,0.2
		c-0.1,0.9-0.3,1.4-0.6,1.4H93c-1.6-1.4-3.3-2.3-5.3-2.6c-1,0.1-1.9,0.1-2.6,0.1c-3.1,0.7-6.2,2.3-9.2,4.9c-1.1,1-1.9,1.7-2.3,2.4
		v0.1h0.2l0.8-0.1v0.1C75,68.1,75.8,68,77,68h0.7c0.1,0,0.1,0,0.1,0.1c0.3-0.1,0.6-0.2,0.9-0.2h1l0.4,0.2l0.1-0.2h-0.4
		c0-0.1,0.1-0.2,0.2-0.2c0.1,0,0.2,0,0.3,0.1c1.6-0.2,2.7-0.3,3.4-0.5c0.1,0.1,0.3,0.1,0.4,0.1c0.3-0.1,0.4-0.2,0.6-0.2l1,0.1
		l0.2-0.1c0.3,0.1,0.5,0.2,0.5,0.3c-0.3,0.2-1.1,0.5-2.4,0.7l-0.2-0.1c-0.8,0.1-1.3,0.2-1.3,0.4h0.1c0.3,0,0.7,0,1.2-0.1
		c0.1,0.1,0.3,0.1,0.5,0.1c0-0.1,0-0.1,0.1-0.1l0.1,0.2l-0.3,0.2c-0.1,0-0.1,0-0.1-0.1l-1.7,0.2V69h0.7v0.2h-0.9
		c-0.1,0-0.2,0.1-0.2,0.3c0,0.4,0.3,0.7,0.9,0.8c0,0.1,0.1,0.2,0.2,0.2v-0.2c0.1,0,0.5,0.1,0.9,0.2v-0.2h0.4l0.6-0.1v0.4h-0.8
		c-0.1,0-0.2,0.1-0.2,0.2V71l0.2-0.1h1V71l-0.1,0.2l0.2,0.1h0.1c0.1,0,0.2-0.1,0.2-0.4H86v0.2h0.2l0.8-0.1v0.2l-0.8,0.1H86
		c0,0.4-0.3,0.6-0.8,0.6C85,72,85,71.9,85,71.6c-0.1,0-0.2,0.1-0.2,0.2H85c0,0.1-0.1,0.2-0.2,0.2h-0.8v0.4l0.5-0.2
		c0.1,0.1,0.3,0.1,0.5,0.1v0.2c-4.4,0.6-7.5,0.9-9.2,0.9l-0.4,0.1v-0.1L75,73.6h-0.5c-0.3,0-0.6,0-1,0.1c-0.1,0-0.1,0-0.1-0.1
		l-1.1,0.1h-2.6c-0.5,0-1.4,1.1-2.7,3.3c-0.5,0.6-1.3,1.8-2.4,3.5l-0.2,0.1l0.1,0.2c-1.6,2.2-2.6,3.5-3.1,3.6v0.1l0.1,0.2
		c-0.2,0-0.3,0.3-0.4,0.8c-0.4,0-0.7,0.5-1.1,1.5c0,0.1-0.2,0.2-0.7,0.3l-0.5,0.9l-0.2-0.1h-0.1c0,0.3-0.1,0.4-0.2,0.4l0.1,0.2
		C58.1,89,57.8,89,57.5,89v0.2h0.1l0.2-0.1v0.1c-1,1.4-2.1,2.3-3.1,2.8l0.1,0.2l-1.4,0.9l-0.1,0.7h-0.2l-0.2-0.1
		c-0.1,0.1-0.1,0.3-0.1,0.3L52.3,94h-0.1v0.2h0.2v0.4h-0.1L52,94.5C52,94.9,51.8,95,51.5,95v0.1l0.2,0.3c-1,0.7-1.8,1.2-2.6,1.5v0.4
		l-0.2-0.1l-0.2,0.1c-0.1-0.1-0.3-0.1-0.4-0.1c-0.7,0.7-1,1-1.1,1v0.1c0,0.2,0.1,0.2,0.4,0.2v0.2c-0.4,0-0.8,0.3-1.2,0.9
		c-0.3,0-0.6,0.2-0.9,0.7v-0.1l0.1-0.2l-0.2-0.1c0,0.1-0.4,0.3-1.1,0.4c-1,1-1.8,1.7-2.6,2.2v0.1h0.3v0.1c0,0.1-0.2,0.3-0.5,0.5
		h-0.1c-0.1,0-0.2-0.1-0.2-0.4c-0.4,0.3-0.6,0.5-0.7,0.5c0.1,0.1,0.1,0.3,0.1,0.3c-0.1,0.3-0.2,0.5-0.3,0.5h-0.4
		c0,0.4-0.3,0.6-0.8,0.6c0-0.2,0.2-0.4,0.6-0.4v-0.2c-0.8,0.5-1.3,0.7-1.5,0.7v0.1c0.2,0,0.3,0.1,0.3,0.2v0.1c-0.4,0-0.8,0.1-1,0.4
		c0-0.1,0-0.1-0.1-0.1l0.1-0.2v-0.1l-0.2,0.1h-0.1c1.3-1.4,2-2,2.3-2l0.2,0.1c0.1,0,0.4-0.3,0.8-0.8c0.5,0,1.1-0.4,1.7-1.1
		c0,0.1,0.1,0.2,0.2,0.2l0.2-0.3h-0.2v-0.2h0.1l0.2,0.1c1.5-1.2,2.3-1.9,2.3-2v-0.1h-0.1l-0.5,0.4H44v-0.2h-0.2
		c0,0.2-0.7,0.8-2.2,1.9c-0.2,0.1-0.4,0.2-0.4,0.3H41v-0.7c1.2-0.5,2-1,2.5-1.7c-0.2-0.2-0.4-0.4-0.5-0.4v-0.2
		c0.5-0.3,0.7-0.5,0.7-0.6h-0.1c-0.8,0-1.2,0.3-1.2,0.9h-0.1c0-0.1,0-0.2-0.1-0.2c-0.4,0.2-0.6,0.4-0.8,0.4v0.1h0.4
		c0,0.1-0.1,0.2-0.2,0.2H41c0,0.1-0.1,0.1-0.4,0.2l0.1,0.2c0,0.1-0.1,0.2-0.3,0.3h-0.2V100c-0.2,0-0.3,0.2-0.4,0.6h-0.2
		c0-0.4,0.2-0.7,0.7-0.9v-0.1h-0.1c-0.3,0.1-0.6,0.3-0.9,0.7l0.4,0.5c-0.1,0-0.4,0.3-0.9,0.8c-0.1-0.1-0.3-0.1-0.3-0.1
		c-0.1,0.3-0.4,0.5-0.7,0.6c-0.1-0.1-0.1-0.3-0.1-0.6c-0.2,0.2-0.4,0.3-0.6,0.3l0.1,0.2c-0.2,0.5-0.5,0.8-0.9,0.8v-0.2
		c0.4-0.1,0.6-0.2,0.6-0.4h-0.2l-1.7,0.8c0-0.1,0-0.1-0.1-0.1v0.1l0.1,0.2h-0.5c-0.4,0.2-0.6,0.4-0.6,0.7h-0.1l-0.2-0.1
		c0,0.4-0.2,0.7-0.7,0.8c0,0.2-0.2,0.3-0.6,0.3c0-0.1,0-0.1-0.1-0.1v0.3h-0.1l-0.2-0.1c0,0.3-0.4,0.6-1.3,0.9c0,0.1,0,0.1-0.1,0.1
		c-0.1-0.1-0.3-0.1-0.3-0.1c0,0.1-0.2,0.2-0.7,0.3c0,0.2-0.4,0.4-1.1,0.6c0-0.1,0-0.1-0.1-0.1c0,0.1-0.5,0.4-1.4,0.8
		c-0.3,0.3-0.9,0.6-2,1v-0.1c0.5-0.5,1.5-1.1,3.1-1.9c0.5-0.5,1.4-1.1,2.6-1.7c0.5-0.4,1.1-0.7,1.7-1c0-0.1,0.2-0.3,0.7-0.5
		c0.1,0.1,0.3,0.1,0.3,0.1c0-0.3,0.6-0.8,1.9-1.5c0-0.1,0-0.1,0.1-0.1c0,0.2,0.1,0.2,0.2,0.2h0.1v-0.1h-0.2v-0.2
		c0-0.1,0.3-0.2,0.9-0.4c0-0.3,0.1-0.5,0.3-0.5h0.2l-0.1,0.2h0.1l1.4-1.3c0.1,0,0.1,0,0.1,0.1c0.5,0,0.9-0.2,1.3-0.7h-0.1
		c0.2-0.4,1.2-1.1,3-2.4l0.2,0.1c0-0.2,1-1.1,2.9-2.6l0.6,0.1l0.4-0.5h-0.1L46,94.1l-0.1-0.2c1.3-0.9,2.7-2.1,4.4-3.8
		c0-0.1,0.2-0.2,0.7-0.2l-0.1-0.2c1.3-1.4,2.3-2.4,2.9-2.8c0-0.2,1.2-1.5,3.6-4.1c2.2-2.8,4.4-5.9,6.7-9.4v-0.1
		c-1.8-0.2-4-1-6.4-2.4c-0.7-0.4-1.1-1.3-1.4-2.5v-2.2c0.3-1.1,0.6-1.6,0.8-1.6c0.1-0.1,0.3-0.1,0.4-0.1c0.1,0,1,0.6,2.5,1.7
		c2.5,1.2,5.1,1.8,7.7,1.8c1.3-2,3.7-4.6,7-7.8C79,57.1,82.9,55.6,86.5,55.6z M25.5,110.6h0.4c0,0.2-0.1,0.2-0.2,0.2h-0.3
		C25.3,110.7,25.4,110.6,25.5,110.6z M29.6,108.3h0.1v0.1c-0.8,0.8-1.6,1.2-2.6,1.5c-0.1,0.3-0.4,0.5-0.7,0.5v-0.1
		C26.7,110,27.8,109.3,29.6,108.3z M31.2,107.6c0,0.2-0.3,0.3-0.9,0.5V108C30.3,107.8,30.7,107.6,31.2,107.6z M31.6,105.8v0.2
		c-0.6,0.2-0.9,0.3-0.9,0.3v-0.2C31.1,105.9,31.4,105.8,31.6,105.8z M40.6,100.7v0.1c-0.1,0.3-0.2,0.5-0.2,0.7l0.3-0.2l0.1,0.2
		l-0.4,0.2l0.1,0.2c0,0.2-0.4,0.4-1.3,0.8c0-0.1,0-0.1-0.1-0.1c-0.7,0.6-1.5,1.3-2.5,1.9c-0.1-0.1-0.3-0.1-0.4-0.1
		c0,0.1-0.2,0.3-0.6,0.4L36,105v0.1h-0.3l-0.2-0.1c-0.1,0.3-0.5,0.6-1,0.9l-0.1,0.2l-0.2-0.1l-0.2,0.1l0.1,0.2v0.1
		c-0.5,0-1.3,0.4-2.4,1.1h-0.4v-0.2c0.2,0,0.4-0.1,0.4-0.2v-0.1l-0.2-0.3v-0.1c0.1,0,0.4-0.2,0.8-0.6h0.1v0.2c0,0-0.2,0.2-0.6,0.6
		c0.1,0.1,0.1,0.3,0.1,0.3h0.1c0.3-0.4,0.5-0.7,0.5-0.9c0.6-0.5,1-0.8,1-1l0.2-0.1c0.1,0,0.2,0.1,0.2,0.2c-0.1,0-0.3,0.2-0.6,0.7
		c-0.5,0.1-0.8,0.2-0.8,0.4h0.1c0.1-0.1,0.3-0.1,0.4-0.1c0,0.1,0,0.1,0.1,0.1c0.8-0.6,1.1-0.9,1.1-1.1v-0.1l0.6,0.1
		c0.5-0.5,1.6-1.1,3.2-2c0-0.2-0.1-0.2-0.3-0.2v-0.3c0.1,0,0.2,0,0.3-0.1c0,0.3,0,0.4,0.1,0.4c0.2,0,0.5-0.2,1-0.5
		c0.1,0,0.3-0.2,0.5-0.5c0.4-0.2,0.6-0.4,0.8-0.4v-0.5h-0.1l-0.6,0.1C39.6,101,40,100.9,40.6,100.7z M31.8,105.5h0.1
		c0.2,0,0.2,0.1,0.2,0.2l-0.2,0.1l-0.1-0.2V105.5z M32.3,108.3l0.1,0.2l-0.2,0.1h-0.1v-0.1C32.1,108.4,32.2,108.3,32.3,108.3z
		 M32.8,107.7h0.1l0.5,0.1c0.1-0.1,0.3-0.1,0.3-0.1v0.4c-0.2,0-0.3,0-0.3,0.1l-0.2-0.1H33c0,0.4-0.1,0.6-0.3,0.6v-0.5l0.2,0.1v-0.1
		C32.8,108.1,32.8,107.9,32.8,107.7z M33,104.8c0.1,0.1,0.3,0.1,0.4,0.1c0,0.2-0.2,0.3-0.6,0.4V105C32.8,104.9,32.9,104.8,33,104.8z
		 M33.7,107.2c0.1,0.1,0.3,0.1,0.4,0.1c0-0.1,0-0.1,0.1-0.1v0.1c0,0.1-0.1,0.2-0.2,0.2h-0.5C33.4,107.4,33.5,107.3,33.7,107.2z
		 M34.2,103.8h0.3v0.1c0,0.1,0,0.1-0.1,0.1l0.1,0.2v0.1l-0.7-0.1v-0.1C33.8,104,33.9,103.9,34.2,103.8z M34.3,104.7v0.1
		c0,0.1-0.1,0.2-0.2,0.2v-0.1C34.1,104.8,34.2,104.7,34.3,104.7z M35.5,106.3l0.1,0.2c0,0.1-0.2,0.2-0.5,0.4l-0.1-0.2L35.5,106.3z
		 M36.1,103.8h0.1v0.1c0,0.2-0.2,0.3-0.6,0.3h-0.2v-0.1C35.6,104.1,35.8,104,36.1,103.8z M36.2,101.3v0.2c0.1-0.1,0.3-0.1,0.3-0.1
		v-0.1L36.2,101.3L36.2,101.3z M36.4,105.5h0.1c0,0.1-0.1,0.2-0.2,0.2h-0.1C36.2,105.6,36.3,105.5,36.4,105.5z M37.6,102l0.1,0.2
		c-0.1,0-0.3,0.1-0.5,0.2h-0.1v-0.3C37.2,102.1,37.3,102,37.6,102z M38.3,102.3v0.1c0,0.2-0.1,0.2-0.2,0.2h-0.1
		C37.9,102.5,38,102.4,38.3,102.3z M38,100.9c0,0.2,0.1,0.2,0.2,0.2h0.1c0-0.2-0.1-0.2-0.2-0.2H38z M40.1,103.3l-0.2,0.3l0.2,0.1
		h0.1c0-0.1,0-0.2,0.1-0.3L40.1,103.3z M40.5,99.2l-0.1,0.4c0.1,0,0.2-0.1,0.3-0.3v-0.1H40.5z M42,98.1c-0.2,0.4-0.5,0.6-0.8,0.6
		v0.2h0.1c0.6-0.5,0.9-0.7,1-0.7v-0.1L42,98.1L42,98.1z M41.8,97.3v0.1h0.1c0.1-0.1,0.3-0.1,0.4-0.1v-0.1h-0.1
		C42,97.3,41.9,97.3,41.8,97.3z M41.9,99.6H42c0.2,0,0.2,0.1,0.2,0.2L42,99.9l-0.1-0.2V99.6z M43.4,98.6v0.1c0,0.1,0.2,0.3,0.5,0.5
		V99l-0.1-0.2c0.1,0,0.2-0.1,0.2-0.2v-0.1L43.4,98.6z M43.5,97.8v0.1h0.4c0.3-0.1,0.5-0.3,0.7-0.6h-0.1
		C44.1,97.6,43.8,97.8,43.5,97.8z M44,99.2v0.1h0.4V99h-0.1C44.1,99,44,99.1,44,99.2z M44.4,98v0.3c0.1,0,0.2-0.1,0.2-0.2L44.4,98z
		 M44.7,97.6v0.1c0.3-0.1,0.5-0.2,0.5-0.4H45C44.8,97.4,44.7,97.5,44.7,97.6z M44.8,98.2H45c0.1,0,0.2-0.1,0.2-0.2h-0.1
		C44.9,98,44.8,98.1,44.8,98.2z M46.8,95.3h-0.1l-0.2-0.1c-0.6,0.4-1,0.9-1.1,1.4c-0.1,0-0.2,0.1-0.2,0.2v0.2h0.2
		c0-0.3,0.3-0.6,1-0.9c0-0.2,0.1-0.3,0.2-0.3h0.1v0.1l-1,1V97c0.5,0,1.1-0.5,1.9-1.6v-0.1l-0.7,0.3v-0.1l0.4-0.4h-0.1L46.8,95.3z
		 M45.6,95.4h0.1c0.1,0,0.2-0.1,0.2-0.2h-0.1C45.7,95.2,45.6,95.2,45.6,95.4z M45.6,98.1v0.1l0.5,0.1c0.4,0,1.2-0.7,2.3-2h0.1v-0.1
		h-0.1c-0.8,0.2-1.3,0.5-1.3,0.9C47.2,97.2,46.7,97.5,45.6,98.1z M46.1,94.8V95h0.1c0.1,0,0.2-0.1,0.4-0.4h-0.1
		C46.3,94.8,46.2,94.8,46.1,94.8z M47.9,95.1H48c0.1,0,0.2-0.1,0.2-0.2h-0.1C48,94.9,47.9,95,47.9,95.1z M49.9,93.1v-0.4
		c0.2,0,0.4-0.1,0.6-0.4h-0.1c-0.2,0-0.4,0.2-0.8,0.7v0.1c0.2,0,0.4,0.1,0.4,0.2h0.2c1.1-1,1.7-1.5,1.7-1.6v-0.1h-0.1
		C50.6,92.5,50.1,93,49.9,93.1L49.9,93.1z M50.8,91.8c0,0,0,0.2-0.1,0.4c0.1,0,0.2-0.1,0.2-0.3v-0.1H50.8z M51,91.3v0.1
		c0,0.2,0.1,0.2,0.2,0.2v-0.4H51z M51.3,93.8v0.1h0.1c0-0.1,0.1-0.2,0.2-0.2v-0.3C51.6,93.4,51.4,93.6,51.3,93.8z M52.2,91.1h0.1
		c0.2,0,0.2-0.1,0.2-0.2h-0.1C52.3,90.9,52.2,90.9,52.2,91.1z M74.1,73.1v0.1h1.1v-0.4C75.2,73,74.8,73.1,74.1,73.1z M76.1,69.4
		L76,69.6l0.2,0.1h0.1v-0.1C76.3,69.4,76.2,69.4,76.1,69.4z M79.8,68.8h-0.3v0.4c-0.4,0-0.6,0.1-0.6,0.3l-0.2-0.1h-0.5l0.1,0.2v0.1
		H78l-0.7,0.1c-0.1-0.1-0.3-0.1-0.5-0.1l-0.1,0.2V70l0.2-0.1h0.4v0.2H77v0.1h0.4l0.5-0.1c0.1,0.1,0.3,0.1,0.4,0.1v-0.1l-0.1-0.2
		c0.7,0,1.1-0.1,1.3-0.2l0.7,0.1c0.4-0.1,0.6-0.2,0.6-0.5c0.4,0.1,0.5,0.2,0.5,0.4v0.1c-0.3,0-0.7,0.1-1.2,0.3v0.1h0.3l0.2-0.1
		c0.1,0.1,0.3,0.1,0.5,0.1h0.1c0-0.2,0.2-0.4,0.7-0.4c0-0.2,0-0.4,0.1-0.4l-0.1-0.2V69H82v-0.1h-0.2c0,0.1,0,0.1-0.1,0.1v-0.1
		L81.4,69h-0.6v-0.1l0.5-0.4h-0.7C80.4,68.6,80.1,68.7,79.8,68.8z M77.1,70.7h-0.4v0.2H77c0.4,0,0.6-0.1,0.7-0.3L77.1,70.7z
		 M77.7,70.9c0.1,0,0.2,0,0.4,0.1c0.6-0.1,0.9-0.2,0.9-0.4c-0.2,0-0.5,0-0.8-0.1C77.8,70.7,77.7,70.8,77.7,70.9z M78,72.8V73h0.3
		c0-0.1-0.1-0.2-0.2-0.2H78z M79,70.6c0,0.1,0.1,0.2,0.2,0.2h0.1c0-0.1-0.1-0.2-0.2-0.2H79z M79.9,70.5v0.1c0,0.1,0.1,0.2,0.2,0.2
		h0.1c-0.1-0.1-0.1-0.3-0.1-0.3H79.9z M80.3,68.8h0.2V69c-0.3,0.1-0.4,0.1-0.4,0.1V69C80.1,68.9,80.1,68.8,80.3,68.8z M81.4,70.2
		c0,0.2-0.1,0.4-0.4,0.4V71h0.1c0-0.3,0.2-0.4,0.7-0.4h0.2l0.2,0.1v-0.2c-0.1,0-0.3-0.1-0.5-0.2L81.4,70.2L81.4,70.2z M81.2,72.5
		c0,0.1,0.1,0.2,0.2,0.2l0.1-0.2H81.2z M81.6,72.4v0.1h0.5v-0.1H81.6z M82,70.9v0.1h0.5v-0.1H82z M82.4,69.5h0.1
		c0,0.2-0.1,0.2-0.2,0.2h-0.1C82.2,69.6,82.3,69.5,82.4,69.5z M84.1,69.3h0.1v0.2c-0.3,0-0.5,0.2-0.5,0.4h0.1l0.7-0.1h0.1v0.2h-0.1
		c-0.1,0-0.1,0-0.1-0.1c-0.4,0.2-0.9,0.3-1.5,0.3L82.4,70v-0.2l1-0.5v0.1C83.7,69.3,83.9,69.3,84.1,69.3z M82.4,72.3v0.2h0.1
		c0.2,0,0.2-0.1,0.2-0.2H82.4z M82.8,70.7v0.2h0.4v-0.2H82.8z M84,71.9h0.3v-0.2h-0.1C84.1,71.7,84,71.7,84,71.9z M84.3,70.9
		l0.1,0.2c-0.1,0-0.1,0-0.1,0.1l0.2,0.1l0.6-0.1v-0.2C84.8,71.1,84.6,71,84.3,70.9z M85.4,68.2h0.4v0.1c-0.1,0-0.2,0.1-0.2,0.2
		c-0.1,0-0.2-0.1-0.2-0.2L85.4,68.2L85.4,68.2z M86.1,71.8h0.3V72h-0.1C86.2,72,86.1,71.9,86.1,71.8z M87.3,67.2h0.1
		c0.1,0,0.2,0.1,0.2,0.2v0.1h-0.4c-0.1,0-0.2-0.1-0.2-0.2L87.3,67.2z"/>
	<path class="st5" d="M91.5,73.6c0.7,0.2,1.2,0.6,1.6,1.3v0.5c0,0.7,0,1.4,0.1,2.1c0,0.1-0.3,1.4-0.8,3.9l5.8-3.4
		c4-1.9,6.2-2.9,6.9-2.9c0.3-0.3,1.1-0.4,2.6-0.6c0.7,0,1.3,0.5,1.9,1.5c0,1.8-0.4,3.8-1.3,6.1c-1.3,1.6-2,2.4-2.3,2.4H106l0.1,0.2
		v0.1c-1.1,1.2-1.8,1.8-2.2,1.8l0.1,0.2V87c-0.2,0-0.4,0.2-0.7,0.7c-0.2,0-1.2,1.1-3,3.4c-0.1,0-0.3,0.1-0.6,0.4h-0.1v-0.4h-0.1
		c0,0.3-0.2,0.5-0.5,0.7c-0.1,0-0.2-0.1-0.2-0.2v-0.1l0.1-0.6c-0.3,0-0.5-0.3-0.7-0.9c0.4-2,2.2-4.7,5.1-8c1.1-1,1.6-1.7,1.6-1.9
		l-0.9,0.4c-0.1-0.1-0.3-0.1-0.5-0.1h-0.1c0,0.2-0.2,0.4-0.6,0.5h-0.3l-1.8,0.8c0,0.2-0.6,0.4-1.7,0.8l-3.5,2.3
		c-0.6,0.2-1.6,0.8-2.9,1.7c-0.7,0.5-2.1,1.5-4.1,2.8c-1.8,1.8-2.9,3-3.3,3.6c-0.3,0.3-0.6,0.9-1,1.7h-0.1c-0.5,0-0.9-0.5-1-1.6h0.1
		c-0.1-0.8-0.2-1.1-0.3-1.1l0.1-0.7l-0.1-0.7c0-1.5,2.2-4.9,6.5-10.1c0-0.1,0.2-0.5,0.6-1.1v-0.1h-0.1c-2.2,0.6-3.7,1.1-4.6,1.7
		l-3.7,1.7h-0.3v0.1l0.1,0.2c-1.5,0.4-3.7,2.1-6.6,5c-0.7,0.6-2,2.2-4,4.7c-0.1,0-1.1,1.2-2.9,3.5H67c-0.2,0-0.4-0.6-0.6-1.8
		c0.1-0.1,0.1-0.3,0.1-0.4l-0.4-0.8c0-0.1,0-0.1,0.1-0.1c-0.1-0.7-0.2-1.3-0.2-1.7c0.4-1.1,1.3-2.6,2.8-4.2l6.9-9.4
		c1.3-2.1,2-3.2,2.2-3.2c0.3-0.5,0.7-0.8,1.1-0.8h0.1c0.3,0,0.5,0.5,0.8,1.4v3h0.2c0.4-0.4,2.2-1.3,5.4-2.8c1.7-0.7,2.6-1,2.8-1
		c0,0.1,0,0.1,0.1,0.1c0-0.1,0.6-0.4,2-0.7l0.2,0.1C90.9,73.7,91.3,73.6,91.5,73.6z M101.5,80.9h0.1c0.1,0,0.2-0.1,0.2-0.2h-0.1
		C101.6,80.7,101.5,80.8,101.5,80.9z"/>
	<path class="st5" d="M133.4,73.6c0.7,0.2,1.2,0.6,1.6,1.3v0.5c0,0.7,0,1.4,0.1,2.1c0,0.1-0.3,1.4-0.8,3.9l5.8-3.4
		c4-1.9,6.2-2.9,6.9-2.9c0.3-0.3,1.1-0.4,2.6-0.6c0.7,0,1.3,0.5,1.9,1.5c0,1.8-0.4,3.8-1.3,6.1c-1.3,1.6-2,2.4-2.3,2.4h-0.1l0.1,0.2
		v0.1c-1.1,1.2-1.8,1.8-2.2,1.8l0.1,0.2V87c-0.2,0-0.4,0.2-0.7,0.7c-0.2,0-1.2,1.1-3,3.4c-0.1,0-0.3,0.1-0.6,0.4h-0.1v-0.4h-0.1
		c0,0.3-0.2,0.5-0.5,0.7c-0.1,0-0.2-0.1-0.2-0.2v-0.1l0.1-0.6c-0.3,0-0.5-0.3-0.7-0.9c0.4-2,2.2-4.7,5.1-8c1.1-1,1.6-1.7,1.6-1.9
		l-0.9,0.4c-0.1-0.1-0.3-0.1-0.5-0.1h-0.1c0,0.2-0.2,0.4-0.6,0.5h-0.3l-1.8,0.8c0,0.2-0.6,0.4-1.7,0.8l-3.5,2.3
		c-0.6,0.2-1.6,0.8-2.9,1.7c-0.7,0.5-2.1,1.5-4.1,2.8c-1.8,1.8-2.9,3-3.3,3.6c-0.3,0.3-0.6,0.9-1,1.7H126c-0.5,0-0.9-0.5-1-1.6h0.1
		c-0.1-0.8-0.2-1.1-0.3-1.1l0.1-0.7l-0.1-0.7c0-1.5,2.2-4.9,6.5-10.1c0-0.1,0.2-0.5,0.6-1.1v-0.1h-0.1c-2.2,0.6-3.7,1.1-4.6,1.7
		l-3.7,1.7h-0.3v0.1l0.1,0.2c-1.5,0.4-3.7,2.1-6.6,5c-0.7,0.6-2,2.2-4,4.7c-0.1,0-1.1,1.2-2.9,3.5h-0.9c-0.2,0-0.4-0.6-0.6-1.8
		c0.1-0.1,0.1-0.3,0.1-0.4l-0.4-0.8c0-0.1,0-0.1,0.1-0.1c-0.1-0.7-0.2-1.3-0.2-1.7c0.4-1.1,1.3-2.6,2.8-4.2l6.9-9.4
		c1.3-2.1,2-3.2,2.2-3.2c0.3-0.5,0.7-0.8,1.1-0.8h0.1c0.3,0,0.5,0.5,0.8,1.4v3h0.2c0.4-0.4,2.2-1.3,5.4-2.8c1.7-0.7,2.6-1,2.8-1
		c0,0.1,0,0.1,0.1,0.1c0-0.1,0.6-0.4,2-0.7l0.2,0.1C132.8,73.7,133.1,73.6,133.4,73.6z M143.4,80.9h0.1c0.1,0,0.2-0.1,0.2-0.2h-0.1
		C143.5,80.7,143.4,80.8,143.4,80.9z"/>
</g>
<text transform="matrix(1 0 0 1 97.0957 68.5059)" class="st6 st7 st8">freemymusic</text>
<path class="st9" d="M179.6,62.6c0.9,0.9,0.9,2.3,0,3.1l-0.2,0.2l-3.1,3.1l-3.3-3.3c-0.9-0.9-0.9-2.3,0-3.1v0c0.9-0.9,2.3-0.9,3.1,0
	l0.2,0.2l0.2-0.2C177.3,61.8,178.7,61.8,179.6,62.6L179.6,62.6z"/>
</svg>
