<?xml version="1.0" encoding="utf-8"?>
<!-- Generator: Adobe Illustrator 26.1.0, SVG Export Plug-In . SVG Version: 6.00 Build 0)  -->
<svg version="1.1" xmlns="http://www.w3.org/2000/svg" xmlns:xlink="http://www.w3.org/1999/xlink" x="0px" y="0px"
	 viewBox="0 0 736.97 340.33" style="enable-background:new 0 0 736.97 340.33;" xml:space="preserve">
<style type="text/css">
	.st0{fill:#1ED760;}
	.st1{display:none;}
	.st2{display:inline;fill:#1ED760;}
</style>
<g id="Layer_1">
	<g>
		<g>
			<g>
				<path class="st0" d="M173.02,86.3c-46.25,0-83.74,37.49-83.74,83.74s37.49,83.74,83.74,83.74s83.74-37.49,83.74-83.74
					C256.76,123.79,219.27,86.3,173.02,86.3z M211.42,207.08c-1.5,2.47-4.72,3.24-7.18,1.74c-19.67-12.02-44.42-14.73-73.57-8.07
					c-2.81,0.64-5.61-1.12-6.25-3.92c-0.64-2.81,1.11-5.61,3.93-6.25c31.9-7.29,59.26-4.15,81.34,9.33
					C212.15,201.41,212.93,204.62,211.42,207.08z M221.67,184.28c-1.89,3.07-5.91,4.04-8.98,2.15
					c-22.5-13.83-56.82-17.84-83.45-9.76c-3.45,1.04-7.1-0.9-8.15-4.35c-1.04-3.45,0.91-7.09,4.35-8.14
					c30.42-9.23,68.23-4.76,94.07,11.13C222.59,177.19,223.56,181.21,221.67,184.28z M222.55,160.54
					c-26.99-16.03-71.52-17.5-97.29-9.68c-4.14,1.26-8.51-1.08-9.77-5.22c-1.25-4.14,1.08-8.51,5.22-9.77
					c29.58-8.98,78.76-7.24,109.83,11.2c3.72,2.21,4.94,7.02,2.74,10.73C231.08,161.52,226.27,162.75,222.55,160.54z"/>
			</g>
		</g>
		<g>
			<g>
				<path class="st0" d="M317.11,163.61c-14.46-3.45-17.03-5.87-17.03-10.95c0-4.8,4.52-8.04,11.25-8.04
					c6.52,0,12.98,2.46,19.76,7.51c0.21,0.15,0.46,0.21,0.71,0.17c0.25-0.04,0.48-0.18,0.62-0.39l7.06-9.95
					c0.29-0.41,0.21-0.97-0.18-1.29c-8.07-6.47-17.15-9.62-27.77-9.62c-15.61,0-26.52,9.37-26.52,22.77
					c0,14.38,9.41,19.46,25.66,23.39c13.84,3.19,16.17,5.86,16.17,10.63c0,5.29-4.72,8.58-12.32,8.58c-8.44,0-15.32-2.84-23.03-9.51
					c-0.19-0.16-0.45-0.24-0.69-0.23c-0.25,0.02-0.49,0.14-0.65,0.33l-7.92,9.42c-0.33,0.39-0.29,0.98,0.09,1.31
					c8.96,8,19.98,12.22,31.87,12.22c16.82,0,27.69-9.19,27.69-23.42C341.91,174.54,334.73,167.89,317.11,163.61z"/>
				<path class="st0" d="M379.97,149.35c-7.29,0-13.27,2.87-18.21,8.76v-6.62c0-0.52-0.42-0.95-0.95-0.95h-12.95
					c-0.52,0-0.95,0.43-0.95,0.95v73.6c0,0.52,0.42,0.95,0.95,0.95h12.95c0.52,0,0.95-0.43,0.95-0.95v-23.23
					c4.93,5.54,10.92,8.24,18.21,8.24c13.55,0,27.27-10.43,27.27-30.37C407.24,159.78,393.52,149.35,379.97,149.35z M392.18,179.72
					c0,10.15-6.25,17.24-15.21,17.24c-8.85,0-15.53-7.41-15.53-17.24s6.68-17.24,15.53-17.24
					C385.78,162.48,392.18,169.73,392.18,179.72z"/>
				<path class="st0" d="M442.39,149.35c-17.45,0-31.12,13.44-31.12,30.59c0,16.97,13.58,30.26,30.9,30.26
					c17.51,0,31.22-13.39,31.22-30.48C473.4,162.69,459.78,149.35,442.39,149.35z M442.39,197.07c-9.28,0-16.28-7.46-16.28-17.34
					c0-9.93,6.75-17.13,16.06-17.13c9.34,0,16.39,7.46,16.39,17.35C458.56,189.86,451.76,197.07,442.39,197.07z"/>
				<path class="st0" d="M510.66,150.53h-14.24v-14.57c0-0.52-0.42-0.95-0.95-0.95h-12.94c-0.52,0-0.95,0.43-0.95,0.95v14.57h-6.23
					c-0.52,0-0.94,0.43-0.94,0.95v11.13c0,0.52,0.42,0.95,0.94,0.95h6.23v28.79c0,11.63,5.79,17.53,17.21,17.53
					c4.64,0,8.5-0.96,12.13-3.02c0.29-0.16,0.48-0.48,0.48-0.82v-10.6c0-0.33-0.17-0.64-0.45-0.81c-0.28-0.18-0.63-0.19-0.92-0.04
					c-2.49,1.25-4.91,1.83-7.6,1.83c-4.15,0-6.01-1.89-6.01-6.11v-26.76h14.25c0.52,0,0.94-0.43,0.94-0.95v-11.12
					C511.61,150.96,511.19,150.53,510.66,150.53z"/>
				<path class="st0" d="M560.3,150.59v-1.79c0-5.26,2.02-7.61,6.54-7.61c2.7,0,4.87,0.54,7.3,1.35c0.3,0.09,0.61,0.05,0.85-0.13
					c0.25-0.18,0.39-0.47,0.39-0.77v-10.92c0-0.42-0.27-0.79-0.67-0.91c-2.57-0.76-5.85-1.55-10.76-1.55
					c-11.96,0-18.28,6.73-18.28,19.47v2.74h-6.22c-0.52,0-0.95,0.43-0.95,0.95v11.18c0,0.52,0.43,0.95,0.95,0.95h6.22v44.41
					c0,0.52,0.42,0.95,0.94,0.95h12.95c0.52,0,0.95-0.43,0.95-0.95v-44.41h12.09l18.52,44.4c-2.1,4.67-4.17,5.59-6.99,5.59
					c-2.28,0-4.68-0.68-7.14-2.02c-0.23-0.13-0.5-0.15-0.75-0.07c-0.25,0.09-0.46,0.27-0.56,0.51l-4.39,9.63
					c-0.21,0.45-0.03,0.99,0.41,1.22c4.58,2.48,8.72,3.54,13.83,3.54c9.56,0,14.84-4.45,19.5-16.43l22.46-58.04
					c0.11-0.29,0.08-0.62-0.1-0.88s-0.47-0.41-0.78-0.41h-13.48c-0.4,0-0.77,0.26-0.9,0.64l-13.81,39.44l-15.12-39.46
					c-0.14-0.37-0.49-0.61-0.88-0.61L560.3,150.59L560.3,150.59z"/>
				<path class="st0" d="M531.52,150.53h-12.95c-0.52,0-0.95,0.43-0.95,0.95v56.48c0,0.52,0.43,0.95,0.95,0.95h12.95
					c0.52,0,0.95-0.43,0.95-0.95v-56.48C532.47,150.96,532.05,150.53,531.52,150.53z"/>
				<path class="st0" d="M525.12,124.81c-5.13,0-9.29,4.15-9.29,9.28c0,5.13,4.16,9.29,9.29,9.29s9.28-4.16,9.28-9.29
					S530.24,124.81,525.12,124.81z"/>
			</g>
			<g>
				<path class="st0" d="M638.54,168.69c-5.12,0-9.11-4.11-9.11-9.11s4.04-9.16,9.16-9.16s9.11,4.11,9.11,9.11
					C647.7,164.52,643.66,168.69,638.54,168.69z M638.59,151.33c-4.67,0-8.2,3.71-8.2,8.25c0,4.54,3.51,8.2,8.15,8.2
					c4.67,0,8.2-3.71,8.2-8.25C646.74,154.99,643.23,151.33,638.59,151.33z M640.61,160.46l2.58,3.61h-2.17l-2.32-3.31h-1.99v3.31
					h-1.82v-9.56h4.26c2.22,0,3.68,1.14,3.68,3.05C642.83,159.13,641.92,160.08,640.61,160.46z M639.07,156.15h-2.37v3.03h2.37
					c1.18,0,1.89-0.58,1.89-1.51C640.96,156.68,640.25,156.15,639.07,156.15z"/>
			</g>
		</g>
	</g>
</g>
<g id="Layer_2" class="st1">
	<rect x="85.17" y="-0.25" class="st2" width="566.78" height="85.02"/>
	<rect x="85.17" y="255.31" class="st2" width="566.78" height="85.02"/>
	
		<rect x="-127.78" y="127.53" transform="matrix(-1.836970e-16 1 -1 -1.836970e-16 212.55 127.53)" class="st2" width="340.58" height="85.02"/>
	
		<rect x="524.17" y="127.53" transform="matrix(-1.836970e-16 1 -1 -1.836970e-16 864.5 -524.42)" class="st2" width="340.58" height="85.02"/>
</g>
</svg>
