<?xml version="1.0" encoding="utf-8"?>
<!-- Generator: Adobe Illustrator 26.1.0, SVG Export Plug-In . SVG Version: 6.00 Build 0)  -->
<svg version="1.1" id="Layer_1" xmlns="http://www.w3.org/2000/svg" xmlns:xlink="http://www.w3.org/1999/xlink" x="0px" y="0px"
	 viewBox="0 0 621.56 169.95" style="enable-background:new 0 0 621.56 169.95;" xml:space="preserve">
<style type="text/css">
	.st0{fill:#24272A;}
	.st1{fill:#E1251B;}
	.st2{fill:#FFFFFF;}
</style>
<g>
	<g>
		<g>
			<path class="st0" d="M438.07,75.22c-2.17,11.03-3.82,24.5-4.69,30.06h-0.61c-0.69-5.73-2.35-19.11-4.6-29.97l-5.56-27.02h-16.94
				v72.89h10.51V61.1l1.04,5.61l10.69,54.47h10.51l10.51-54.47l1.13-5.64v36.12v24h10.51v-72.9h-17.11L438.07,75.22z"/>
			<path class="st0" d="M488.98,110.23c-0.96,2-3.04,3.39-5.13,3.39c-2.43,0-3.39-1.91-3.39-6.6v-39.1h-11.99v39.79
				c0,9.82,3.21,14.33,10.34,14.33c4.86,0,8.77-2.17,11.47-7.38h0.26l1.04,6.52h9.38V67.92h-11.99L488.98,110.23L488.98,110.23z"/>
			<path class="st0" d="M524.17,88.95c-3.91-2.87-6.34-4.78-6.34-8.95c0-2.95,1.39-4.6,4.69-4.6c3.39,0,4.52,2.35,4.6,10.34
				l10.08-0.43c0.78-12.94-3.48-18.33-14.51-18.33c-10.25,0-15.29,4.6-15.29,14.07c0,8.6,4.17,12.51,10.95,17.64
				c5.82,4.52,9.21,7.04,9.21,10.69c0,2.78-1.74,4.69-4.78,4.69c-3.56,0-5.65-3.39-5.13-9.3l-10.16,0.17
				c-1.56,11.03,2.87,17.46,14.68,17.46c10.34,0,15.72-4.78,15.72-14.33C537.89,99.37,533.55,95.9,524.17,88.95z"/>
			<rect x="544.5" y="67.92" class="st0" width="11.47" height="53.25"/>
			<path class="st0" d="M550.32,46.9c-4.43,0-6.52,1.65-6.52,7.38c0,5.91,2.08,7.38,6.52,7.38c4.52,0,6.52-1.48,6.52-7.38
				C556.83,48.81,554.84,46.9,550.32,46.9z"/>
			<path class="st0" d="M594.54,101.98l-10.51-0.52c0,9.38-1.04,12.42-4.6,12.42s-4.17-3.39-4.17-14.42V89.12
				c0-10.69,0.69-14.07,4.26-14.07c3.3,0,4.17,3.21,4.17,13.12l10.43-0.7c0.69-8.25-0.35-13.9-3.56-17.11
				c-2.35-2.35-5.91-3.47-10.86-3.47c-11.64,0-16.42,6.26-16.42,23.8v7.47c0,18.07,4.08,23.89,15.99,23.89
				c5.04,0,8.51-1.04,10.86-3.3C593.5,115.62,594.8,110.23,594.54,101.98z"/>
		</g>
		<g>
			<path class="st0" d="M185.26,119.62c-2.4-1.62-4.11-4.14-5.13-7.56c-1.01-3.42-1.52-7.96-1.52-13.64v-7.73
				c0-5.73,0.58-10.34,1.74-13.82c1.16-3.48,2.97-6.01,5.43-7.6c2.46-1.59,5.69-2.39,9.69-2.39c3.94,0,7.1,0.81,9.47,2.43
				c2.37,1.62,4.11,4.16,5.21,7.6c1.1,3.45,1.65,8.04,1.65,13.77v7.74c0,5.68-0.54,10.24-1.61,13.69s-2.81,5.97-5.21,7.56
				c-2.4,1.59-5.66,2.39-9.78,2.39C190.98,122.05,187.67,121.24,185.26,119.62z M198.73,111.28c0.67-1.74,1-4.58,1-8.51v-16.6
				c0-3.82-0.33-6.62-1-8.39s-1.84-2.65-3.52-2.65c-1.62,0-2.77,0.88-3.43,2.65c-0.67,1.77-1,4.56-1,8.39v16.6
				c0,3.94,0.32,6.78,0.96,8.51c0.64,1.74,1.79,2.61,3.48,2.61C196.89,113.88,198.06,113.01,198.73,111.28z"/>
			<path class="st0" d="M369.81,98.54v2.69c0,3.42,0.1,5.98,0.3,7.69c0.2,1.71,0.62,2.95,1.26,3.74c0.64,0.78,1.62,1.17,2.95,1.17
				c1.79,0,3.03-0.7,3.69-2.09c0.67-1.39,1.03-3.71,1.09-6.95l10.34,0.61c0.06,0.46,0.09,1.1,0.09,1.91c0,4.92-1.35,8.6-4.04,11.04
				c-2.69,2.43-6.5,3.65-11.43,3.65c-5.91,0-10.05-1.85-12.43-5.56s-3.56-9.44-3.56-17.2v-9.3c0-7.99,1.23-13.83,3.69-17.51
				s6.68-5.52,12.64-5.52c4.11,0,7.27,0.75,9.47,2.26s3.75,3.85,4.65,7.04s1.35,7.59,1.35,13.21v9.12
				C389.87,98.54,369.81,98.54,369.81,98.54z M371.33,76.13c-0.61,0.75-1.01,1.98-1.22,3.69c-0.2,1.71-0.3,4.3-0.3,7.78v3.82h8.78
				V87.6c0-3.42-0.12-6.01-0.35-7.78s-0.65-3.01-1.26-3.74c-0.61-0.72-1.55-1.09-2.82-1.09C372.88,75,371.94,75.37,371.33,76.13z"/>
			<path class="st0" d="M156.06,97.55l-13.64-49.27h11.9l4.78,22.33c1.22,5.5,2.11,10.2,2.69,14.08h0.35
				c0.4-2.78,1.3-7.44,2.69-13.99l4.95-22.42h11.9l-13.82,49.27v23.64h-11.8L156.06,97.55L156.06,97.55z"/>
			<path class="st0" d="M250.52,67.92v53.26h-9.38l-1.04-6.52h-0.26c-2.55,4.92-6.37,7.39-11.47,7.39c-3.53,0-6.14-1.16-7.82-3.48
				c-1.68-2.32-2.52-5.94-2.52-10.86V67.92h11.99v39.1c0,2.38,0.26,4.07,0.78,5.08s1.39,1.52,2.61,1.52c1.04,0,2.04-0.32,3-0.96
				s1.66-1.45,2.13-2.43V67.92H250.52z"/>
			<path class="st0" d="M312.03,67.92v53.26h-9.38l-1.04-6.52h-0.26c-2.55,4.92-6.37,7.39-11.47,7.39c-3.53,0-6.14-1.16-7.82-3.48
				s-2.52-5.94-2.52-10.86V67.92h11.99v39.1c0,2.38,0.26,4.07,0.78,5.08s1.39,1.52,2.61,1.52c1.04,0,2.04-0.32,3-0.96
				s1.66-1.45,2.13-2.43V67.92H312.03z"/>
			<path class="st0" d="M283.11,57.93h-11.9v63.26h-11.73V57.93h-11.9v-9.64h35.54v9.64H283.11z"/>
			<path class="st0" d="M351.72,76.43c-0.73-3.36-1.9-5.79-3.52-7.3s-3.85-2.26-6.69-2.26c-2.2,0-4.26,0.62-6.17,1.87
				s-3.39,2.88-4.43,4.91h-0.09V45.58h-11.56v75.59h9.91l1.22-5.04h0.26c0.93,1.8,2.32,3.21,4.17,4.26
				c1.85,1.04,3.91,1.56,6.17,1.56c4.05,0,7.04-1.87,8.95-5.6c1.91-3.74,2.87-9.57,2.87-17.51v-8.42
				C352.8,84.46,352.44,79.79,351.72,76.43z M340.72,98.16c0,3.88-0.16,6.92-0.48,9.12c-0.32,2.2-0.85,3.77-1.61,4.69
				c-0.75,0.93-1.77,1.39-3.04,1.39c-0.99,0-1.9-0.23-2.74-0.7c-0.84-0.46-1.52-1.16-2.04-2.09V80.33c0.4-1.45,1.1-2.63,2.09-3.56
				c0.98-0.93,2.06-1.39,3.21-1.39c1.22,0,2.16,0.48,2.82,1.43c0.67,0.96,1.13,2.56,1.39,4.82s0.39,5.47,0.39,9.64L340.72,98.16
				L340.72,98.16z"/>
		</g>
	</g>
	<g>
		<path class="st1" d="M79.78,136.78c29.15,0,52.79-23.63,52.79-52.79c0-29.15-23.63-52.79-52.79-52.79
			c-29.15,0-52.79,23.63-52.79,52.79C26.99,113.14,50.63,136.78,79.78,136.78z"/>
		<path class="st2" d="M79.78,56.19c15.33,0,27.8,12.47,27.8,27.8s-12.47,27.8-27.8,27.8s-27.8-12.47-27.8-27.8
			S64.45,56.19,79.78,56.19z M79.78,51.93c-17.7,0-32.06,14.35-32.06,32.06c0,17.7,14.35,32.06,32.06,32.06
			c17.7,0,32.06-14.35,32.06-32.06C111.84,66.29,97.48,51.93,79.78,51.93z"/>
		<path class="st2" d="M69.58,99.59l26.99-15.6l-26.99-15.6C69.58,68.39,69.58,99.59,69.58,99.59z"/>
	</g>
</g>
</svg>
